<svg id="a500e5c7-112c-4771-acf5-f96befb3a58d" data-name="Layer 1" xmlns="http://www.w3.org/2000/svg" width="31.88" height="32" role="img" preserveAspectRatio="xMidYMid meet" viewBox="0 0 848.75 643.69"><defs><style>.b37c9c12-36e2-486c-a20a-56a26f178415{fill:#f89938;}</style></defs><path class="b37c9c12-36e2-486c-a20a-56a26f178415" d="M689.78,578.86h-9.85V295.71H168.8V578.86H159A13.07,13.07,0,1,0,159,605h530.8a13.07,13.07,0,0,0,0-26.13Zm-468.18,0V378.77c0-1,0-1.94.13-2.9a32.28,32.28,0,0,1,64.29,0,27.89,27.89,0,0,1,.13,2.9V578.86Zm112.43,0V378.77c0-1,0-1.94.13-2.9a32.28,32.28,0,0,1,64.29,0c.09,1,.13,1.92.13,2.9V578.86Zm114.5,0V378.77c0-1,0-1.94.13-2.9a32.28,32.28,0,0,1,64.29,0c.09,1,.13,1.92.13,2.9V578.86Zm115.55,0V378.77c0-1,0-1.94.13-2.9a32.28,32.28,0,0,1,64.29,0,27.89,27.89,0,0,1,.13,2.9V578.86Z"/><path class="b37c9c12-36e2-486c-a20a-56a26f178415" d="M647.29,269.58H201.47c15.71-104.36,103-185.28,210.21-191.23V66.2a12.69,12.69,0,1,1,25.37,0V78.35C544.34,84.28,631.58,165.22,647.29,269.58Z"/></svg>